<?xml version="1.0" standalone="no"?>
<!DOCTYPE svg PUBLIC "-//W3C//DTD SVG 20010904//EN"
 "http://www.w3.org/TR/2001/REC-SVG-20010904/DTD/svg10.dtd">
<svg version="1.0" xmlns="http://www.w3.org/2000/svg"
 width="300.000000pt" height="234.000000pt" viewBox="0 0 300.000000 234.000000"
 preserveAspectRatio="xMidYMid meet">
<metadata>
Created by potrace 1.10, written by Peter Selinger 2001-2011
</metadata>
<g transform="translate(0.000000,234.000000) scale(0.100000,-0.100000)"
fill="#000000" stroke="none">
<path d="M1458 1778 c-2 -7 -1 -38 3 -68 l6 -55 1 68 c2 64 -1 82 -10 55z"/>
<path d="M1407 1738 c3 -24 10 -50 15 -58 6 -10 7 -2 4 25 -3 22 -6 48 -6 58
0 9 -4 17 -9 17 -5 0 -7 -19 -4 -42z"/>
<path d="M1547 1758 c-10 -43 -19 -118 -14 -118 6 0 29 131 24 137 -3 2 -7 -6
-10 -19z"/>
<path d="M1580 1703 c-13 -43 -25 -84 -27 -90 -3 -7 -1 -13 5 -13 10 0 58 167
50 175 -3 3 -15 -30 -28 -72z"/>
<path d="M1500 1703 c0 -55 5 -54 14 5 4 26 2 42 -4 42 -5 0 -10 -21 -10 -47z"/>
<path d="M1631 1707 c-29 -67 -26 -83 5 -24 14 27 23 54 21 60 -3 7 -14 -10
-26 -36z"/>
<path d="M1693 1650 c-24 -33 -39 -60 -33 -60 5 0 28 27 50 60 53 78 38 78
-17 0z"/>
<path d="M1720 1614 c-77 -91 -75 -103 4 -19 36 39 65 73 66 78 1 18 -19 1
-70 -59z"/>
<path d="M1230 1581 c36 -32 66 -58 68 -56 3 2 -18 23 -99 98 -10 9 -22 17
-26 17 -5 0 21 -27 57 -59z"/>
<path d="M1765 1595 c-27 -24 -45 -44 -40 -44 6 -1 33 19 60 44 28 24 46 44
40 44 -5 1 -32 -19 -60 -44z"/>
<path d="M1140 1596 c0 -5 87 -68 110 -80 22 -11 -30 32 -62 51 -16 10 -28 21
-28 25 0 4 -4 8 -10 8 -5 0 -10 -2 -10 -4z"/>
<path d="M1787 1554 c-21 -14 -36 -28 -34 -31 6 -6 77 39 77 50 0 10 -1 10
-43 -19z"/>
<path d="M1798 1522 c-26 -15 -48 -31 -48 -35 0 -8 84 36 105 54 18 17 -10 8
-57 -19z"/>
<path d="M1140 1486 c25 -14 54 -25 65 -25 12 0 4 7 -21 18 -65 30 -93 34 -44
7z"/>
<path d="M1779 1464 c-24 -13 -37 -23 -29 -23 8 0 26 6 40 14 14 8 39 15 55
15 17 1 39 5 50 10 14 5 7 8 -26 7 -28 0 -63 -9 -90 -23z"/>
<path d="M1080 1460 c0 -9 158 -55 165 -48 3 2 -33 16 -80 30 -47 14 -85 22
-85 18z"/>
<path d="M1296 1431 c3 -9 13 -35 21 -58 8 -23 21 -47 29 -54 8 -6 14 -27 14
-45 0 -30 3 -34 25 -34 22 0 25 4 25 33 0 18 4 37 9 43 10 9 51 113 51 127 0
4 -10 7 -23 7 -19 0 -26 -9 -38 -47 -8 -25 -20 -48 -26 -50 -6 -2 -16 18 -23
46 -11 46 -14 50 -41 49 -23 -1 -29 -5 -23 -17z"/>
<path d="M1582 1438 c-5 -7 -21 -55 -34 -106 l-25 -93 26 3 c18 2 27 10 29 24
4 31 66 27 70 -5 3 -16 10 -21 32 -21 28 0 28 1 18 33 -5 17 -14 55 -19 82
-16 95 -16 95 -53 95 -18 0 -38 -6 -44 -12z m52 -80 c7 -36 5 -38 -19 -38 -24
0 -26 2 -19 38 4 20 9 41 11 45 8 14 20 -6 27 -45z"/>
<path d="M1905 1445 c-5 -2 -27 -6 -49 -10 -21 -3 -36 -9 -33 -12 9 -8 107 8
107 18 0 9 -7 10 -25 4z"/>
<path d="M1090 1401 c40 -13 127 -23 110 -12 -8 4 -42 11 -75 14 -37 4 -50 3
-35 -2z"/>
<path d="M1838 1383 c17 -2 47 -2 65 0 17 2 3 4 -33 4 -36 0 -50 -2 -32 -4z"/>
<path d="M1093 1363 c10 -9 97 -21 97 -13 0 4 -17 10 -37 14 -49 8 -68 8 -60
-1z"/>
<path d="M1835 1340 c44 -11 67 -11 60 0 -3 6 -25 9 -48 9 -40 -1 -40 -2 -12
-9z"/>
<path d="M1805 1311 c11 -5 45 -11 75 -15 35 -3 46 -3 30 3 -37 12 -130 23
-105 12z"/>
<path d="M1755 1285 c51 -20 165 -51 165 -45 0 8 -137 51 -160 49 -8 0 -10 -2
-5 -4z"/>
<path d="M1093 1273 c-13 -2 -23 -8 -23 -12 0 -8 100 6 109 15 5 5 -56 3 -86
-3z"/>
<path d="M1115 1224 l-40 -14 39 5 c37 4 54 11 45 19 -2 2 -22 -3 -44 -10z"/>
<path d="M1805 1227 c23 -16 87 -39 92 -33 4 4 -91 46 -104 46 -4 0 1 -6 12
-13z"/>
<path d="M1762 1167 c34 -28 93 -63 85 -50 -3 5 -30 24 -59 41 -35 21 -44 24
-26 9z"/>
<path d="M1739 1130 c30 -28 58 -50 63 -50 5 0 13 -10 19 -22 10 -23 10 -23 5
-1 -2 14 2 23 13 26 9 2 5 3 -8 2 -18 -2 -39 11 -76 46 -29 27 -56 49 -61 49
-5 0 15 -23 45 -50z"/>
<path d="M1310 1157 c0 -7 -22 -37 -50 -67 -27 -30 -50 -59 -50 -65 0 -5 25
17 55 50 46 51 69 95 50 95 -3 0 -5 -6 -5 -13z"/>
<path d="M1238 1125 c-16 -13 -36 -28 -45 -34 -10 -5 -15 -12 -12 -16 4 -3 26
12 50 34 47 43 52 57 7 16z"/>
<path d="M1298 1063 c-42 -59 -50 -73 -45 -73 5 0 62 77 81 108 19 31 -6 7
-36 -35z"/>
<path d="M1430 1093 c0 -5 -11 -43 -24 -85 -14 -43 -21 -78 -17 -78 5 0 16 30
26 68 10 37 22 71 26 77 5 5 9 13 9 17 0 10 -20 11 -20 1z"/>
<path d="M1357 1010 c-14 -33 -22 -60 -17 -60 9 0 55 109 48 115 -3 3 -16 -22
-31 -55z"/>
<path d="M1457 1045 c-4 -10 -10 -46 -12 -79 l-5 -61 15 70 c15 69 15 107 2
70z"/>
<path d="M1487 1020 c-4 -14 -6 -36 -6 -50 1 -22 2 -20 10 8 6 19 9 41 7 50
-3 12 -6 10 -11 -8z"/>
<path d="M1533 980 c0 -36 2 -50 4 -32 2 17 2 47 0 65 -2 17 -4 3 -4 -33z"/>
<path d="M1570 985 c7 -48 20 -72 20 -38 0 33 -12 83 -20 83 -4 0 -4 -20 0
-45z"/>
</g>
</svg>
