<?xml version="1.0" standalone="no"?>
<!DOCTYPE svg PUBLIC "-//W3C//DTD SVG 20010904//EN"
 "http://www.w3.org/TR/2001/REC-SVG-20010904/DTD/svg10.dtd">
<svg version="1.0" xmlns="http://www.w3.org/2000/svg"
 width="64.000000pt" height="64.000000pt" viewBox="0 0 64.000000 64.000000"
 preserveAspectRatio="xMidYMid meet">

<g transform="translate(0.000000,64.000000) scale(0.100000,-0.100000)"
fill="#000000" stroke="none">
<path d="M480 421 c0 -5 20 -29 44 -53 l44 -44 -39 -33 c-42 -35 -51 -29 -19
12 11 14 20 28 20 31 0 3 -110 6 -245 6 -157 0 -245 -4 -245 -10 0 -6 82 -10
225 -10 124 0 225 -2 225 -4 0 -2 -7 -20 -15 -39 -17 -40 -20 -70 -6 -65 5 2
37 29 72 62 57 53 61 59 43 69 -10 5 -36 27 -56 49 -38 39 -48 45 -48 29z"/>
</g>
</svg>
