<?xml version="1.0" standalone="no"?>
<!DOCTYPE svg PUBLIC "-//W3C//DTD SVG 20010904//EN"
 "http://www.w3.org/TR/2001/REC-SVG-20010904/DTD/svg10.dtd">
<svg version="1.0" xmlns="http://www.w3.org/2000/svg"
 width="50.000000pt" height="50.000000pt" viewBox="0 0 50.000000 50.000000"
 preserveAspectRatio="xMidYMid meet">

<g transform="translate(0.000000,50.000000) scale(0.100000,-0.100000)"
fill="#000000" stroke="none">
<path d="M311 445 c-108 -51 -280 -252 -281 -329 0 -22 62 -86 84 -86 9 0 32
25 53 55 36 55 36 56 20 89 l-15 33 60 61 60 61 34 -16 c33 -16 34 -16 89 20
30 21 55 44 55 52 0 24 -60 85 -84 85 -11 0 -45 -12 -75 -25z m112 -23 c15
-15 27 -31 27 -35 0 -3 -21 -20 -46 -38 -42 -29 -48 -30 -72 -18 -15 7 -30 15
-34 17 -9 4 -126 -105 -139 -130 -6 -11 -4 -26 8 -46 16 -28 16 -30 -16 -75
-17 -26 -35 -47 -40 -47 -4 0 -20 13 -35 29 -23 24 -27 35 -22 58 25 100 247
313 327 313 8 0 27 -13 42 -28z"/>
</g>
</svg>
