<?xml version="1.0" standalone="no"?>
<!DOCTYPE svg PUBLIC "-//W3C//DTD SVG 20010904//EN"
 "http://www.w3.org/TR/2001/REC-SVG-20010904/DTD/svg10.dtd">
<svg version="1.0" xmlns="http://www.w3.org/2000/svg"
 width="50.000000pt" height="50.000000pt" viewBox="0 0 50.000000 50.000000"
 preserveAspectRatio="xMidYMid meet">

<g transform="translate(0.000000,50.000000) scale(0.100000,-0.100000)"
fill="#000000" stroke="none">
<path d="M185 476 c-69 -31 -104 -103 -91 -189 11 -70 127 -277 156 -277 16 0
118 165 140 227 36 100 19 173 -52 226 -33 25 -113 32 -153 13z m133 -26 c99
-61 92 -180 -21 -347 -23 -35 -45 -63 -48 -63 -4 0 -25 28 -47 62 -86 132
-111 235 -73 296 43 68 125 91 189 52z"/>
<path d="M202 367 c-28 -30 -28 -68 1 -95 30 -28 68 -28 95 1 28 30 28 68 -1
95 -30 28 -68 28 -95 -1z m82 -13 c31 -30 9 -84 -34 -84 -24 0 -50 26 -50 50
0 24 26 50 50 50 10 0 26 -7 34 -16z"/>
</g>
</svg>
